PathFileType	4	(X/Y/Z)	..\data\2014004\dynamic\2014004_C4_02.trc
DataRate	CameraRate	NumFrames	NumMarkers	Units	OrigDataRate	OrigDataStartFrame	OrigNumFrames
100.000000	100.000000	4	52	mm	100.000000	86	172
Frame#	Time	L_IAS			L_IPS			R_IPS			R_IAS			L_FTC			L_FLE			L_FME			L_FAX			L_TTC			L_FAL			L_TAM			L_FCC			L_FM1			L_FM2			L_FM5			R_FTC			R_FLE			R_FME			R_FAX			R_TTC			R_FAL			R_TAM			R_FCC			R_FM1			R_FM2			R_FM5			CV7			TV10			SXS			SJN			L_SIA			L_SRS			L_SAA			L_SAE			L_HLE			L_HME			L_UOA			L_RSP			L_UHE			L_HM2			L_HM5			R_SIA			R_SRS			R_SAA			R_SAE			R_HLE			R_HME			R_UOA			R_RSP			R_UHE			R_HM2			R_HM5			
		X1	Y1	Z1	X2	Y2	Z2	X3	Y3	Z3	X4	Y4	Z4	X5	Y5	Z5	X6	Y6	Z6	X7	Y7	Z7	X8	Y8	Z8	X9	Y9	Z9	X10	Y10	Z10	X11	Y11	Z11	X12	Y12	Z12	X13	Y13	Z13	X14	Y14	Z14	X15	Y15	Z15	X16	Y16	Z16	X17	Y17	Z17	X18	Y18	Z18	X19	Y19	Z19	X20	Y20	Z20	X21	Y21	Z21	X22	Y22	Z22	X23	Y23	Z23	X24	Y24	Z24	X25	Y25	Z25	X26	Y26	Z26	X27	Y27	Z27	X28	Y28	Z28	X29	Y29	Z29	X30	Y30	Z30	X31	Y31	Z31	X32	Y32	Z32	X33	Y33	Z33	X34	Y34	Z34	X35	Y35	Z35	X36	Y36	Z36	X37	Y37	Z37	X38	Y38	Z38	X39	Y39	Z39	X40	Y40	Z40	X41	Y41	Z41	X42	Y42	Z42	X43	Y43	Z43	X44	Y44	Z44	X45	Y45	Z45	X46	Y46	Z46	X47	Y47	Z47	X48	Y48	Z48	X49	Y49	Z49	X50	Y50	Z50	X51	Y51	Z51	X52	Y52	Z52	

87	0.86	-95.22005462646487	958.6323852539065	158.8427124023438	-288.5650024414063	987.6623535156252	231.0289459228516	-288.0548400878907	988.9404907226565	323.0356140136719	-88.36495971679693	964.383972167969	389.4454345703126	-174.1343536376953	898.9554443359377	88.92177581787108	-80.15871429443362	496.8966064453126	100.6256713867188	-40.65182113647464	487.424285888672	225.0026550292969	-117.9774703979493	452.3348999023439	94.6834716796875	-56.68356323242191	398.417694091797	147.482406616211	-355.5894775390626	180.8566589355469	135.6489715576172	-307.8387145996094	179.8927154541016	223.4153289794922	-406.1592712402345	177.2847442626953	199.2560882568359	-240.0312500000001	60.89074325561525	203.10888671875	-246.6810760498048	71.22139739990236	147.5288696289062	-285.8002929687501	69.01037597656251	108.9938888549805	-145.5460662841798	886.4117431640627	452.7679443359376	-156.8472595214845	456.8057861328126	394.9505310058595	-127.843864440918	473.0397033691407	268.1374206542969	-166.048568725586	419.696746826172	392.4840393066407	-98.96433258056648	410.7318420410157	345.3697204589844	-216.1528778076173	63.54924774169923	334.8003845214844	-202.2661285400391	92.22744750976564	241.3945922851563	-272.0278320312501	29.9862174987793	275.7637634277344	-64.19635009765629	23.57600784301758	257.1535034179688	-72.68222808837896	39.5530014038086	314.1932373046876	-105.0290908813477	24.09148406982423	367.6759338378907	-222.3575134277345	1475.677124023438	282.5374755859376	-306.7230224609376	1249.897583007813	273.5474243164062	-60.81306838989263	1199.21484375	263.8269042968751	-104.6186065673829	1385.73828125	279.3837585449219	-307.2754211425782	1288.442138671875	160.7865142822266	-276.9377746582032	1424.516967773438	202.1568603515625	-237.3323974609376	1436.90283203125	119.2015228271484	-167.5172424316407	1443.335205078125	92.67205047607422	-195.8334350585938	1126.636840820313	4.330530166625953	-228.4944000244141	1119.32080078125	85.56729888916014	-236.8423461914063	1105.645263671875	35.34705734252928	-61.69996643066408	890.0214843750002	45.56930160522461	-125.6811447143555	889.4759521484377	-4.924683094024674	-30.70493698120118	810.2631835937502	42.06818008422852	-126.6629333496094	798.3433837890627	-1.483123660087601	-303.6502075195314	1263.3564453125	397.2265625000001	-271.109100341797	1407.432739257813	364.8092956542969	-215.7451934814454	1417.392456054688	446.7319946289064	-153.5198516845704	1417.794189453125	463.515350341797	-240.5937500000001	1096.61962890625	532.6165161132814	-255.4459228515626	1092.034423828125	442.5820617675782	-278.041717529297	1081.60546875	489.2818298339844	-102.0935592651368	860.5936279296877	516.9251098632814	-176.7974090576173	851.5545043945315	543.9939575195314	-73.23582458496102	774.601745605469	536.9293823242189	-179.9080200195313	768.9669189453127	531.1594848632814	
88	0.87	-83.98759460449222	959.446472167969	159.983627319336	-277.5161132812501	988.566345214844	230.9727172851563	-277.0477905273439	989.6203613281252	323.14697265625	-77.48828125000006	964.364440917969	390.3129882812501	-161.901611328125	900.2295532226565	89.08546447753906	-61.34450912475589	499.035369873047	102.1003646850586	-22.4357776641846	490.7272949218751	226.4999694824219	-97.86398315429692	453.1358337402345	96.04662322998048	-35.15047454833987	401.4708251953126	149.1657867431641	-325.4907226562501	172.7595825195313	135.6769561767578	-278.1409301757813	173.3491668701172	223.7833709716797	-376.4237060546876	166.2508239746094	199.2314453125	-204.4448547363282	57.96255493164064	201.9536285400391	-211.4328002929688	68.89807891845705	146.3066253662109	-250.3303222656251	65.4685516357422	107.7444534301758	-135.6326446533204	886.2955322265627	453.1273193359376	-154.2954254150391	456.927215576172	394.8478393554689	-124.3637390136719	472.6040649414064	268.0942382812501	-163.6714019775391	419.8378906250001	392.3660888671876	-96.53105163574226	410.1658630371095	345.4238586425782	-215.9710540771485	63.88061523437501	334.4622497558594	-201.5598449707032	92.63832855224611	241.2606964111328	-271.7790832519532	30.56297683715821	275.2411499023438	-64.00482940673832	23.56002807617188	257.2091064453126	-72.5071640014649	39.55157089233399	314.1946716308594	-105.0110244750977	24.18554115295411	367.6021728515626	-211.3965759277345	1476.052490234375	283.2788696289063	-295.5668029785157	1250.173095703125	274.4945373535156	-49.73465347290044	1199.830200195313	264.2819213867188	-93.50706481933598	1386.29150390625	279.7816467285157	-296.7225646972657	1288.773681640625	162.1893310546875	-266.1312255859376	1424.934936523438	203.1186218261719	-226.8347320556641	1437.252197265625	120.1470718383789	-157.2615203857422	1443.575805664063	93.06182098388672	-189.2622833251953	1127.229125976563	4.864118099212624	-221.931137084961	1120.353881835938	86.12843322753905	-230.5791168212891	1106.782470703125	35.82022476196287	-58.66573333740237	888.7099609375002	46.43669509887695	-122.4782485961914	889.0764160156252	-4.247799873352067	-28.67339515686036	808.539001464844	42.97621536254884	-124.7329406738282	797.9105224609377	-0.8716754317283786	-292.1182861328126	1263.648193359375	398.4153747558594	-259.9575195312501	1407.769653320313	365.6588745117188	-204.4221496582032	1417.7978515625	447.4638977050782	-142.1606903076173	1418.349853515625	464.0270080566407	-227.4706878662111	1096.569091796875	533.2454223632814	-242.5198669433595	1091.876708984375	443.2266235351563	-264.8778076171876	1080.939331054688	489.8737487792969	-83.98400878906257	863.508239746094	516.8623657226564	-158.5228118896485	852.785827636719	543.6091308593751	-53.4022750854493	778.255065917969	536.9723510742189	-159.8345031738282	770.1397705078127	530.3596191406251	
89	0.88	-72.74565887451175	960.0205688476565	161.0762176513672	-266.5027465820313	989.2491455078127	230.9004058837891	-266.0542602539064	990.1370239257815	323.224853515625	-66.64159393310553	964.1561279296877	391.1419677734376	-149.7818603515625	901.258972167969	89.25518798828125	-42.98942947387697	500.8814697265626	103.6300964355469	-4.891619205474882	493.7931518554689	228.0758514404297	-78.07900238037112	453.5445861816407	97.45062255859376	-14.10191917419436	404.329559326172	151.083236694336	-294.7077026367188	164.0269775390625	135.6552886962891	-248.0565643310548	166.3913116455078	224.2019805908203	-345.9151000976563	154.6781463623047	199.0653228759766	-168.4928283691407	55.02338027954103	201.1963348388672	-175.8441314697266	66.3552932739258	145.5021209716797	-214.3763885498047	61.59082794189455	106.8567657470703	-125.7694778442384	886.0726318359377	453.4869689941407	-151.7959442138673	457.0966796875001	394.753143310547	-120.8881607055665	472.1884765625001	268.1119689941407	-161.354965209961	420.0211791992189	392.2938842773439	-94.11795806884771	409.6222229003907	345.5534057617188	-215.8030853271485	64.23265075683595	334.1214904785157	-200.8999176025391	93.08963012695314	241.093246459961	-271.483367919922	31.13898468017579	274.6536865234375	-63.81013488769536	23.57826614379883	257.2823486328126	-72.32710266113287	39.56880950927735	314.2270507812501	-104.9974975585938	24.28042602539063	367.5253601074219	-200.4065399169923	1476.270751953125	283.9501647949219	-284.4038696289064	1250.298706054688	275.3566284179688	-38.6599502563477	1200.254638671875	264.6645507812501	-82.38732910156254	1386.671020507813	280.0900573730469	-286.1444702148438	1288.965087890625	163.5022125244141	-255.3105010986329	1425.235229492188	203.9996948242188	-216.3123321533204	1437.45947265625	121.0222930908203	-146.9864807128907	1443.663208007813	93.369873046875	-182.7581939697266	1127.7216796875	5.332125663757303	-215.3879852294922	1121.292602539063	86.65345001220702	-224.3623504638672	1107.812255859375	36.25086212158201	-55.63425827026369	887.410339355469	47.1514778137207	-119.3636016845703	888.5933227539065	-3.553977489471451	-26.54454803466798	806.8892822265627	43.62321090698243	-122.8303146362305	797.4167480468752	-0.1284905970096739	-280.594451904297	1263.775634765625	399.5176086425782	-248.7766418457032	1407.95751953125	366.4414367675781	-193.0602874755861	1418.033081054688	448.1201171875001	-130.7605438232423	1418.708862304688	464.4604797363282	-214.4125823974611	1096.435302734375	534.0249023437501	-229.8364562988282	1091.597900390625	444.0429992675782	-251.8545837402345	1080.17138671875	490.7133789062501	-65.91762542724616	866.5273437500002	516.6893310546876	-140.183319091797	854.050720214844	543.3132934570314	-33.51509857177741	782.082458496094	536.7114257812501	-139.617645263672	771.365905761719	529.6495971679689	
90	0.89	-61.48597335815433	960.3718872070315	162.0799865722657	-255.5180816650391	989.6773071289065	230.8444366455078	-255.0669403076173	990.4692382812502	323.2828063964844	-55.81523895263678	963.7573852539065	391.9211425781251	-137.7940368652344	902.0264892578127	89.43030548095703	-25.11158370971682	502.4198303222657	105.1846542358399	11.93554687499997	496.5781250000001	229.714584350586	-58.66147613525393	453.5718688964845	98.87358856201173	6.422004222869856	406.9739990234376	153.1900482177735	-263.2488708496094	154.8025207519532	135.6096649169922	-217.5858306884766	159.133529663086	224.6752166748047	-314.6329040527344	142.719970703125	198.7899017333985	-132.2171478271485	52.1638526916504	200.850830078125	-139.9383850097657	63.69763183593751	145.1174621582031	-177.9656677246094	57.48912048339845	106.3379058837891	-115.9339294433595	885.7342529296877	453.8430175781251	-149.3209533691407	457.3119506835939	394.6591186523439	-117.421501159668	471.7915039062501	268.1751403808594	-159.078598022461	420.2450561523439	392.2615051269532	-91.71543121337896	409.0952453613282	345.7413635253907	-215.6519622802735	64.60158538818361	333.7844543457032	-200.3083648681641	93.56760406494142	240.8864440917969	-271.1580505371095	31.719633102417	274.016357421875	-63.61827087402348	23.62220764160157	257.3727722167969	-72.1482772827149	39.59115982055665	314.2907409667969	-104.9939727783204	24.36545944213868	367.4450683593751	-189.3819885253907	1476.33203125	284.5414428710938	-273.233123779297	1250.27734375	276.1308898925781	-27.59177589416508	1200.474853515625	264.9614257812501	-71.26294708251957	1386.865600585938	280.3051147460938	-275.5422973632813	1289.020263671875	164.7255249023438	-244.4678802490235	1425.41748046875	204.7906799316407	-205.7537536621095	1437.525146484375	121.8163375854492	-136.6751251220703	1443.593627929688	93.59149169921875	-176.2870025634766	1128.111572265625	5.745489597320536	-208.8222961425782	1122.129638671875	87.15035247802733	-218.1519622802735	1108.730834960938	36.65589523315428	-52.5736885070801	886.1047973632815	47.71126174926758	-116.3081436157227	888.0257568359377	-2.860709667205825	-24.3140106201172	805.277038574219	44.02968215942384	-120.9382476806641	796.8568115234377	0.7292805314063879	-269.0842285156251	1263.750244140625	400.5196228027344	-237.5619964599611	1407.998901367188	367.1491088867188	-181.6570587158204	1418.101440429688	448.6937866210939	-119.3165283203126	1418.87255859375	464.8106689453126	-201.4136199951173	1096.216918945313	534.9426879882814	-217.3654785156251	1091.186279296875	445.0051879882814	-238.9577178955079	1079.2919921875	491.7792663574219	-47.9309272766114	869.635192871094	516.4191284179689	-121.8160781860353	855.3482666015627	543.1112060546876	-13.62108325958259	786.0651855468752	536.1691894531251	-119.3114471435548	772.653015136719	529.0401611328126	
